<?xml version="1.0" encoding="utf-8"?>
<!-- Generator: Adobe Illustrator 27.5.0, SVG Export Plug-In . SVG Version: 6.00 Build 0)  -->
<svg version="1.1" xmlns="http://www.w3.org/2000/svg" xmlns:xlink="http://www.w3.org/1999/xlink" x="0px" y="0px"
	 viewBox="0 0 500 500" style="enable-background:new 0 0 500 500;" xml:space="preserve">
<g id="BACKGROUND">
	<rect style="fill:#F9F7EA;" width="500" height="500"/>
</g>
<g id="OBJECTS" xmlns:serif="http://www.serif.com/">
	<g>
		<ellipse style="fill:#E5DBC1;" cx="259.778" cy="425.816" rx="226.224" ry="7.559"/>
		<g>
			<g>
				<g>
					<g>
						<path style="fill:#88AA3B;" d="M339.197,202.95c0,0,16.303,16.571,34.098,6.012c17.795-10.559,25.216-67.477,31.586-70.178
							c6.371-2.7,43.696,6.462,48.899,24.525c0,0,8.229-38.679-35.497-39.132c-46.14-0.48-39.13,34.701-40.979,38.556
							C375.454,166.589,339.197,202.95,339.197,202.95L339.197,202.95z"/>
						<g>
							<path style="fill:#CEC24D;" d="M356.858,202.526c0,0,26.074,4.243,33.223-10.936l-1.692-19.622l-23.686,5.979
								L356.858,202.526L356.858,202.526z"/>
							<path style="fill:#CEC24D;" d="M392.415,143.146c0,0,34.957-30.168,56.895,10.872L392.415,143.146z"/>
						</g>
					</g>
					<g>
						<g>
							<path style="fill:none;stroke:#A37A3A;stroke-linecap:round;stroke-linejoin:round;stroke-miterlimit:1.5;" d="
								M420.354,133.074c0,0-1.41,3.114,0.067,6.659"/>
							<path style="fill:none;stroke:#A37A3A;stroke-linecap:round;stroke-linejoin:round;stroke-miterlimit:1.5;" d="
								M435.878,138.495c0,0-2.794,2.336-3.275,4.853"/>
						</g>
						<path style="fill:#598340;" d="M449.251,137.509c-1.26,2.883-0.997,6.758,0.616,9.428c1.052,1.742,2.466,3.339,4.238,4.337
							C453.583,146.918,452.244,141.971,449.251,137.509z M424.343,124.51c0.007,0.018,0.011,0.032,0.015,0.043
							c0.988,2.799,2.825,5.632,6.048,5.744c1.756,0.06,4.467-1.142,6.165-2.872C433.164,126.025,429.126,125.006,424.343,124.51
							L424.343,124.51z"/>
					</g>
				</g>
				<g>
					<g>
						<path style="fill:#C25D45;" d="M350.663,175.229c0,0-19.719,32.035-13.57,36.293c4.156,2.88,11.814,2.361,17.464-3.244
							c5.821-5.775,13.446-24.692,13.446-24.692L350.663,175.229z"/>
						<path style="fill:#343C53;" d="M387.007,154.163l-0.726-15.158c0,0-14.547,1.197-22.183,7.672
							c-10.771,9.135-21.198,29.141-21.198,29.141l28.111,20.549L387.007,154.163L387.007,154.163z"/>
					</g>
					<g>
						<g>
							<path style="fill:#B1C85F;" d="M347.037,148.323c0,0-27.711,22.645-14.613,49.365l27.197-40.445L347.037,148.323
								L347.037,148.323z"/>
							<path style="fill:#E4D58F;" d="M355.152,154.075l-5.971,1.353c0,0-15.088,11.624-12.393,32.804l20.401-29.396l-1.846-4.626
								L355.152,154.075z"/>
						</g>
						<g>
							<g>
								<path style="fill:none;stroke:#B7964C;stroke-linecap:round;stroke-linejoin:round;stroke-miterlimit:1.5;" d="
									M344.953,160.564c0,0,1.434,1.332,4.243,2.52"/>
								<path style="fill:none;stroke:#B7964C;stroke-linecap:round;stroke-linejoin:round;stroke-miterlimit:1.5;" d="
									M339.786,170.402c0,0,2.956,2.221,5.246,1.705"/>
							</g>
							<path style="fill:#709D44;" d="M329.413,177.168c0.69,0.668,1.372,1.445,1.832,2.281c0.999,1.82-0.184,3.229-0.184,5.053
								c0,1.26,0.722,2.424,0.594,3.69c-0.074,0.733-0.543,1.302-1.193,1.622c-0.236,0.117-0.492,0.197-0.755,0.251
								C328.681,185.552,328.707,181.219,329.413,177.168z M341.5,153.828c0.113,0.516,0.176,1.04,0.152,1.544
								c-0.104,2.124-1.901,3.221-2.769,4.978c-0.595,1.202-0.677,3.058-1.751,3.972c-0.789,0.673-2.03,0.604-3.143,0.128
								C336.328,160.156,339.108,156.539,341.5,153.828L341.5,153.828z"/>
						</g>
					</g>
				</g>
				<g>
					<g>
						<g>
							<path style="fill:#2C3243;" d="M462.981,427.603l-41.678-0.664l3.983-14.392c0,0,18.513-1.143,24.965,0.925
								C465.232,418.274,462.981,427.603,462.981,427.603L462.981,427.603z"/>
							<path style="fill:#4D5775;" d="M462.204,422.273c1.349,2.964,0.777,5.331,0.777,5.331l-41.679-0.664l1.292-4.667H462.204
								L462.204,422.273z"/>
						</g>
						<g>
							<path style="fill:#2C3243;" d="M366.258,427.603l39.547-0.664l-3.779-14.392c0,0-17.566-1.143-23.688,0.925
								C364.122,418.274,366.258,427.603,366.258,427.603L366.258,427.603z"/>
							<path style="fill:#4D5775;" d="M404.483,421.901h-37.319c-1.494,3.135-0.906,5.703-0.906,5.703l39.547-0.664L404.483,421.901
								L404.483,421.901z"/>
						</g>
					</g>
					<g>
						<path style="fill:#BB683A;" d="M378.213,223.069l-13.269,10.638l10.348,178.524l30.513,3.595l-5.489-121.866l20.986,122.122
							l31.178-2.909L433.616,239.43L378.213,223.069L378.213,223.069z"/>
						<g>
							<path style="fill:#91502D;" d="M365.665,245.937c11.846,4.348,43.763,14.614,69.572,9.74l-1.621-16.247l-55.404-16.361
								l-13.269,10.638L365.665,245.937L365.665,245.937z"/>
						</g>
						<path style="fill:#91502D;" d="M403.757,370.346l-3.439-76.337l-3.064-11.765l-15.925-6.448L403.757,370.346L403.757,370.346z
							 M400.452,294.526l0.084,0.724l-0.201-1.171L400.452,294.526L400.452,294.526z"/>
					</g>
				</g>
				<g>
					<path style="fill:#343C53;" d="M407.806,138.672c0,0,25.623-0.299,33.039,7.489c7.415,7.787-3.058,101.2-3.058,101.2
						c-26.551,2.497-51.934,0.709-75.056-3.744c0,0,1.026-74.51,6.169-92.25C374.043,133.627,407.806,138.672,407.806,138.672
						L407.806,138.672z"/>
					<path style="fill:#2D3148;" d="M443.089,182.666c-1.31,29.076-5.303,64.694-5.303,64.694
						c-26.551,2.497-51.934,0.709-75.056-3.744c0,0,0.152-11.09,0.636-25.733c59.641,13.292,74.888-38.291,74.888-38.291
						L443.089,182.666z"/>
				</g>
				<g>
					<g>
						<g>
							<g>
								<path style="fill:#C25D45;" d="M356.199,155.937c0,0,13.533-4.671,17.525-1.774c3.993,2.896,6.135,11.67,2.95,13.044
									C373.489,168.581,356.199,155.937,356.199,155.937L356.199,155.937z"/>
								<path style="fill:#D77A5F;" d="M342.501,186.58c-0.905-0.705-10.688-3.681,1.401-20.221
									c2.783-3.809,6.328-7.464,10.082-10.369c1.2-0.928,2.886-1.158,4.338-1.4c4.086-0.682,10.488-0.873,13.851,1.968
									c2.265,1.915,3.749,5.816,4.326,8.658c0.36,1.773,0.314,3.843-1.563,4.745c-0.351,0.168-1.825,0.262-1.825,0.262
									s0.527,3.254-0.806,4.588c-0.826,0.826-3.288,0.869-3.288,0.869s0.316,1.036,0.208,2.239
									c-0.152,1.686-1.926,2.755-3.563,2.253c-3.517-1.079-5.058-4.667-7.883-3.896c-0.39,0.106-1.472,3.702-4.485,6.998
									C348.073,188.985,342.873,186.869,342.501,186.58L342.501,186.58z"/>
							</g>
							<g>
								<path style="fill:none;stroke:#973B38;stroke-linecap:round;stroke-linejoin:round;stroke-miterlimit:1.5;" d="
									M372.634,168.084c0,0-1.853-5.019-4.145-5.941c-2.291-0.924-8.145-2.39-8.145-2.39"/>
								<path style="fill:none;stroke:#973B38;stroke-linecap:round;stroke-linejoin:round;stroke-miterlimit:1.5;" d="
									M368.489,174.552c0,0-2.215-4.857-4.506-5.779c-2.291-0.923-7.784-2.552-7.784-2.552"/>
							</g>
						</g>
						<path style="fill:#D77A5F;" d="M339.148,175.229c0,0-13.451,25.25-5.218,34c6.006,6.383,15.544,4.67,18.323-2.54
							c3.753-9.738-2.824-22.688-2.824-22.688L339.148,175.229L339.148,175.229z"/>
					</g>
					<g>
						<g>
							<path style="fill:#B1C85F;" d="M356.809,136.794c10.205-2.064,19.915,0.431,21.117,6.268c0.888,4.312-1.407,6.81-1.407,6.81
								s0.849,3.525-12.247,6.749c-13.668,3.366-17.121-0.163-18.751-5.896C343.893,144.994,347.925,138.59,356.809,136.794
								L356.809,136.794z"/>
							<path style="fill:#D1DC83;" d="M348.926,140.46c1.923-1.682,4.565-2.996,7.883-3.667c10.205-2.064,19.789,0.273,21.117,6.268
								c0.222,1.004,0.319,1.968,0.143,2.922c-0.888-2.716-1.814-4.497-4.202-5.966C365.6,134.931,354.66,137.633,348.926,140.46
								L348.926,140.46z"/>
							<path style="fill:#E4D58F;" d="M376.528,149.924c0.042,0.452-0.098,3.704-12.254,6.697
								c-8.785,2.164-13.351,1.479-15.924-0.81c0.697-1.278,2.028-2.524,3.397-3.43c2.218-1.465,6.765,1.26,12.856-0.437
								C369.055,150.702,374.123,150.138,376.528,149.924L376.528,149.924z"/>
						</g>
						<g>
							<g>
								<circle style="fill:#11304E;" cx="359.848" cy="145.503" r="2.266"/>
								<path style="fill:#FFFFFF;" d="M360.731,143.761c0.565,0,1.022,0.458,1.022,1.022c0,0.565-0.458,1.022-1.022,1.022
									c-0.565,0-1.022-0.458-1.022-1.022C359.709,144.218,360.166,143.761,360.731,143.761z"/>
							</g>
							<path style="fill:#425D30;" d="M373.881,145.477c0.394,0.152,0.63,0.492,0.527,0.759c-0.102,0.268-0.506,0.362-0.899,0.211
								c-0.394-0.151-0.63-0.492-0.527-0.759C373.084,145.42,373.488,145.326,373.881,145.477z"/>
						</g>
					</g>
				</g>
				<g>
					<g>
						<path style="fill:#D77A5F;" d="M413.009,125.443c0,0-1.73,10.56,6.173,14.439c0,0-6.481,13.674-17.705,14.739
							c-11.225,1.063-13.156-13.731-10.641-14.26c2.689-0.566,4.605-1.985,4.426-15.934L413.009,125.443L413.009,125.443z"/>
						<path style="fill:#C25D45;" d="M413.396,132.423c-4.048,3.456-10.829,7.412-20.047,6.474c1.38-2.249,2.432-6.496,1.913-14.471
							l17.747,1.017C413.009,125.443,412.459,128.8,413.396,132.423z"/>
					</g>
					<g>
						<path style="fill:#C25D45;" d="M377.889,106.656c-4.065-0.578-7.732,1.579-8.184,4.814c-0.452,3.235,2.481,6.331,6.545,6.909
							c4.065,0.578,7.732-1.58,8.184-4.814C384.885,110.329,381.953,107.234,377.889,106.656z"/>
						<path style="fill:#D77A5F;" d="M398.106,77.39c-13.393,1.076-23.387,14.755-22.305,30.529
							c1.084,15.775,10.326,28.896,23.719,27.82c13.393-1.076,25.899-15.943,24.815-31.716
							C423.253,88.248,411.499,76.315,398.106,77.39L398.106,77.39z"/>
						<g>
							<g>
								<path style="fill:#25314F;" d="M403.699,112.031c-0.773,0.152-1.217,1.311-0.99,2.585c0.227,1.274,1.04,2.186,1.813,2.034
									c0.774-0.152,1.218-1.31,0.99-2.585C405.286,112.79,404.473,111.879,403.699,112.031z"/>
								<path style="fill:#25314F;" d="M384.045,113.887c-0.774,0.153-1.218,1.311-0.99,2.585c0.226,1.276,1.039,2.187,1.813,2.035
									c0.773-0.153,1.217-1.311,0.99-2.586C385.63,114.646,384.818,113.735,384.045,113.887L384.045,113.887z"/>
								<path style="fill:#2C3243;" d="M411.146,108.858c0,0-7.608-4.781-11.149,0.192
									C399.997,109.05,401.911,97.98,411.146,108.858z"/>
								<path style="fill:#2C3243;" d="M378.213,110.231c0,0,2.65-5.548,9.566-1.884
									C387.778,108.347,379.537,98.423,378.213,110.231z"/>
							</g>
							<g>
								
									<path style="fill:none;stroke:#973B38;stroke-width:0.92;stroke-linecap:round;stroke-linejoin:round;stroke-miterlimit:1.5;" d="
									M390.535,116.511c0,0-0.201,3.743,1.166,5.785"/>
								
									<path style="fill:none;stroke:#973B38;stroke-width:0.92;stroke-linecap:round;stroke-linejoin:round;stroke-miterlimit:1.5;" d="
									M393.797,126.517c0,0,6.669,1.951,9.119-5.334"/>
							</g>
						</g>
						<g>
							<path style="fill:#2C3243;" d="M418.824,113.87l-1.463-9.425c0,0-5.603-5.954-7.523-11.328l-31.605,1.011
								c0,0-1.954,5.293-2.129,16.987c0,0-6.463-16.446,4.874-29.546c11.745-13.569,36.964-8.672,42.663,2.602
								c6.566,12.988,4.188,24.027,4.188,24.027L418.824,113.87z"/>
							<path style="fill:#394056;" d="M374.433,103.42c-0.585-5.968,0.135-14.443,6.545-21.851
								c8.591-9.925,24.393-9.971,34.491-4.866C383.492,70.995,375.77,91.8,374.433,103.42z"/>
						</g>
						<path style="fill:#D77A5F;" d="M420.526,105.895c-3.495,2.251-4.985,6.326-3.326,9.095c1.66,2.768,5.844,3.186,9.339,0.935
							c3.496-2.252,4.986-6.327,3.327-9.096C428.207,104.061,424.022,103.643,420.526,105.895L420.526,105.895z"/>
					</g>
				</g>
				<g>
					<g>
						<g>
							<g>
								<path style="fill:#D77A5F;" d="M432.243,188.761l25.852-6.631c0,0,10.241,38.42,8.042,46.38
									c-4.423,16.009-36.681,35.813-36.681,35.813l-8.83-12.63c0,0,21.228-21.244,21.431-27.398
									C442.26,218.139,432.243,188.761,432.243,188.761L432.243,188.761z"/>
								<path style="fill:#C25D45;" d="M437.651,205.62c-2.609-8.65-5.407-16.859-5.407-16.859l25.852-6.631
									c0,0,2.004,7.515,4.047,16.59L437.651,205.62z"/>
							</g>
							<path style="fill:#D77A5F;" d="M425.383,251.542c0,0-15.665-2.559-21.507,0.456c-3.359,1.734-12.952,12.039-11.462,14.053
								c1.489,2.014,10.851-6.888,10.851-6.888s-10.593,13.414-9.012,15.029c2.477,2.527,12.106-9.622,12.106-9.622
								s-9.434,14.29-7.068,16.032c2.253,1.658,10.929-10.372,10.929-10.372s-5.179,11.828-2.953,12.974
								c2.448,1.26,7.825-9.854,7.825-9.854s10.579-0.141,16.459-10.591L425.383,251.542L425.383,251.542z"/>
						</g>
						<path style="fill:#343C53;" d="M434.964,143.105c0,0,14.072,2.424,20.539,14.973c6.469,12.547,10.697,29.994,10.697,29.994
							l-33.431,16.503c0,0-8.542-21.507-7.167-33.409C426.978,159.261,434.964,143.105,434.964,143.105L434.964,143.105z"/>
					</g>
					<g>
						<g>
							<path style="fill:#B1C85F;" d="M438.522,208.263c0,0,4.668,13.65,3.924,15.99c-0.745,2.341-4.069,7.411-5.927,13.51
								c-1.858,6.1,2.537,15.133,9.041,23.482c6.814,8.748,15.158,30.709-5.778,44.05c-21.495,13.697-16.112,22.886-15.002,25.04
								c0,0-8.795-6.333-3.785-17.017c5.009-10.684,20.107-20.381,19.016-27.408c-2.815-18.138-25.754-23.485-24.514-45.114
								C417.014,214.329,438.522,208.263,438.522,208.263L438.522,208.263z"/>
							<path style="fill:#E4D58F;" d="M442.526,223.575c-0.001,0.279-0.027,0.508-0.08,0.677c-0.745,2.341-4.069,7.411-5.927,13.51
								c-1.858,6.1,2.537,15.133,9.041,23.482c3.023,3.881,6.348,10.364,7.282,17.539c-4.238-12.04-15.099-18.29-19.158-30.128
								C429.615,236.789,437.796,227.654,442.526,223.575L442.526,223.575z"/>
						</g>
						<g>
							<path style="fill:none;stroke:#B7964C;stroke-linecap:round;stroke-linejoin:round;stroke-miterlimit:1.5;" d="
								M436.765,230.821c0.842,0.152,1.554,0.425,2.138,0.82"/>
							<path style="fill:none;stroke:#B7964C;stroke-linecap:round;stroke-linejoin:round;stroke-miterlimit:1.5;" d="
								M433.775,246.997c1.053-0.479,2.079-0.754,3.018-0.754"/>
							<path style="fill:none;stroke:#B7964C;stroke-linecap:round;stroke-linejoin:round;stroke-miterlimit:1.5;" d="
								M442.966,262.525c0.934-0.315,1.69-0.822,1.892-1.922"/>
						</g>
						<path style="fill:#709D44;" d="M435.04,295.737c1.459-0.071,2.982,0.278,3.707,1.4c0.901,1.397-0.054,3.508-0.965,4.634
							c-2.269,2.803-7.929,7.53-11.728,7.611c-1.088,0.022-1.873-0.17-2.413-0.517C426.945,304.188,431.547,299.761,435.04,295.737
							L435.04,295.737z M418.565,254.712c-0.425-3.049-0.291-9.289,3.749-9.093c2.799,0.137,4.275,2.645,6.219,4.245
							c4.537,3.732,7.663,8.075,9.053,13.89c0.454,1.896,1.004,4.292,0.214,6.17c-0.462,1.099-2.045,2.37-3.845,3.205
							c-1.693-2.124-3.586-4.127-5.497-6.13c0.625-1.489,1.225-3.004,0.983-4.546c-0.306-1.956-1.275-4.048-3.055-5.07
							c-2.122-1.219-2.527,1.821-3.172,3.93C421.463,259.255,419.857,257.091,418.565,254.712L418.565,254.712z M431.485,211.675
							c1.867,0.837,3.632,2.124,4.222,4.08c0.656,2.181-0.612,4.539-1.079,6.631c-0.891,3.984,0.326,10.079-4.77,11.697
							c-4.101,1.303-9.618,0.563-13.014-1.995c0.829-3.145,1.971-5.9,3.301-8.308c2.489,1.044,4.971,1.524,5.817-2.916
							c0.31-1.626-0.259-2.764-1.083-3.645C427.088,214.828,429.403,213.018,431.485,211.675L431.485,211.675z"/>
					</g>
				</g>
			</g>
			<g>
				<g>
					<g>
						<path style="fill:#F9B287;" d="M93.437,409.694l-6.056-19.072l-17.504,8.119l6.205,15.711L93.437,409.694L93.437,409.694z"/>
						<g>
							<path style="fill:#462143;" d="M74.908,409.705l18.449-0.113l3.856,14.91c0,0-38.871,0.558-38.96,0.154
								C56.009,414.387,72.813,409.695,74.908,409.705L74.908,409.705z"/>
							<path style="fill:#F9B287;" d="M94.077,412.377c-6.632,2.538-26.94,9.616-32.653,3.533c4.517-4.224,12.12-6.212,13.484-6.205
								l18.449-0.113L94.077,412.377L94.077,412.377z"/>
						</g>
						<path style="fill:#F9B287;" d="M124.652,417.304l0.631-17.626l-18.824,1.189l0.728,14.99L124.652,417.304L124.652,417.304z"/>
						<g>
							<path style="fill:#5E2C5A;" d="M106.31,412.454l18.449-0.2l3.925,14.892c0,0-38.869,0.741-38.959,0.337
								C87.434,417.224,104.215,412.454,106.31,412.454z"/>
							<path style="fill:#F9B287;" d="M125.491,415.036c-6.619,2.569-26.894,9.742-32.636,3.687
								c4.496-4.245,12.09-6.269,13.454-6.269l18.449-0.2L125.491,415.036L125.491,415.036z"/>
						</g>
					</g>
					<g>
						<g>
							<path style="fill:#FD7BAA;" d="M101.83,229.736c0,0,16.616,38.04-29.436,104.441c12.292,15.866,7.077,27.56,19.695,65.115
								l-21.579,7.031c0,0-27.166-64.37-25.752-74.245c3.889-27.146,25.993-97.186,25.993-97.186L101.83,229.736L101.83,229.736z"/>
							<path style="fill:#FD649B;" d="M98.549,283.896c-4.756,14.235-12.833,31.072-26.156,50.282
								c6.056,7.817,7.863,14.621,9.646,24.006c-6.625-12.074-13.09-22.85-13.09-22.85c5.749-12.11,11.865-59.571,11.865-59.571
								L98.549,283.896z"/>
						</g>
						<path style="fill:#FD7BAA;" d="M122.918,227.395c0,0,18.307,8.431-0.685,103.127c10.858,21.842,4.276,32.419,5.467,74.879
							l-23.381,1.846c0,0-0.607-31.383-9.002-78.798c-5.604-31.656-15.182-92.192-15.182-92.192L122.918,227.395z"/>
						<path style="fill:#FD649B;" d="M62.951,260.506c4.384-14.791,7.8-25.613,7.8-25.613l31.079-5.156c0,0,0.278,0.636,0.663,1.891
							l20.426-4.232c0,0,8.92,4.107,7.847,38.789C103.277,269.549,78.161,264.709,62.951,260.506z"/>
					</g>
				</g>
				<path style="fill:#AD4DA6;" d="M93.057,153.958c0,0,36.195-3.312,41.502,9.551c7.152,17.336-6.619,39.546-6.395,50.744
					c0.223,11.198,7.501,43.038,7.501,43.038c-25.967,8.466-46.067,4.497-73.95-1.083c0,0,6.29-32.853,6.279-38.618
					c-0.012-6.134-8.561-45.376-2.559-53.145C71.435,156.676,93.057,153.958,93.057,153.958L93.057,153.958z"/>
				<g>
					<path style="fill:#F89874;" d="M47.866,191.636c0,0-7.118,26.383-3.35,30.929c3.768,4.548,54.06,0.527,54.06,0.527
						l-1.525-10.271l-30.272-5.596l4.284-16.106L47.866,191.636z"/>
					<path style="fill:#AD4DA6;" d="M78.228,175.776l-7.349-14.849c0,0-11.889,0.18-17.808,9.331
						c-5.92,9.153-10.459,29.244-10.459,29.244l28.492,4.585L78.228,175.776z"/>
				</g>
				<g>
					<path style="fill:#933C1C;" d="M94.819,98.129c0.031-9.451,7.59-18.311,19.713-15.42c13.337,3.18,13.491,17.319,7.66,35.882
						c-5.153,16.407,10.891,20.005,10.891,20.005c-3.789,2.292-9.154,4.07-12.532-0.341c0,0,0.218,5.093,11.726,7.293
						C132.277,145.548,94.589,168.48,94.819,98.129z"/>
					<g>
						<g>
							<path style="fill:#F9B287;" d="M101.938,140.558c0,0,0.061,11.495,9.399,14.156c0,0-4.548,15.661-16.599,18.841
								s-16.887-12.13-14.241-13.15c2.83-1.091,4.659-2.943,1.89-17.678L101.938,140.558z"/>
							<path style="fill:#F89874;" d="M103.648,147.876c-3.779,4.399-10.447,9.827-20.678,10.519
								c1.09-2.633,1.454-7.321-0.583-15.669l19.551-2.168C101.938,140.558,101.958,144.211,103.648,147.876L103.648,147.876z"/>
						</g>
						<g>
							<path style="fill:#F89874;" d="M63.648,124.308c-3.858-1.038-7.645,0.629-8.452,3.721c-0.808,3.092,1.669,6.445,5.526,7.483
								s7.645-0.629,8.452-3.721C69.982,128.7,67.506,125.347,63.648,124.308z"/>
							<g>
								<path style="fill:#F9B287;" d="M87.535,96.497c-13.054-0.524-24.272,11.602-25.036,27.061
									c-0.765,15.459,7.866,30.343,20.929,30.098c10.555-0.198,25.611-12.739,26.375-28.199
									C110.567,109.997,100.59,97.021,87.535,96.497L87.535,96.497z"/>
								<path style="fill:#F89874;" d="M105.974,128.447c0,0-8.809-5.79-11.325-15.284c0,0-12.343,5.364-20.806,5.199
									c0,0,3.652-1.472,5.737-3.761c0,0-6.415,3.424-13.448,4.145c0,0-3.814,5.411-3.485,9.486l0.409-14.042l33.294-13.132
									l11.215,16.21L105.974,128.447z"/>
							</g>
							<g>
								<g>
									<path style="fill:#162448;" d="M88.961,130.823c-0.764,0.058-1.326,1.131-1.252,2.398c0.072,1.266,0.752,2.246,1.516,2.189
										c0.764-0.058,1.326-1.132,1.252-2.398C90.405,131.747,89.725,130.767,88.961,130.823z"/>
									<path style="fill:#162448;" d="M70.098,130.555c-0.764,0.057-1.325,1.131-1.252,2.397c0.072,1.265,0.752,2.247,1.516,2.189
										c0.764-0.058,1.326-1.131,1.252-2.397C71.541,131.478,70.861,130.497,70.098,130.555z"/>
									<path style="fill:#B44A22;" d="M94.62,127.686c0,0-6.796-5.538-10.786-1.119C83.834,126.567,86.952,116.031,94.62,127.686z
										"/>
									<path style="fill:#B44A22;" d="M63.437,126.132c0,0,3.195-5.083,9.451-0.711C72.888,125.422,66.07,114.809,63.437,126.132z
										"/>
								</g>
								<g>
									
										<path style="fill:none;stroke:#C04A4A;stroke-width:0.92;stroke-linecap:round;stroke-linejoin:round;stroke-miterlimit:1.5;" d="
										M76.08,135.394c0,0-0.966,1.857,0.119,4.002"/>
									
										<path style="fill:none;stroke:#C04A4A;stroke-width:0.92;stroke-linecap:round;stroke-linejoin:round;stroke-miterlimit:1.5;" d="
										M77.739,143.745c0,0,6.214,2.676,9.416-4.116"/>
								</g>
							</g>
							<g>
								<path style="fill:#B44A22;" d="M106.298,129.323c0,0-10.727-10.216-10.664-20.623c0,0-2.873,6.384-18.58,8.683
									c0,0,9.769-4.725,11.11-8.555c0,0-9.463,6.159-22.922,8.995c0,0-2.454,4.515-2.503,12.019c0,0-15.326-22.753,7.573-37.385
									c19.881-12.704,30.603,2.979,30.603,2.979s18.288-3.694,12.544,31.057L106.298,129.323L106.298,129.323z"/>
								<path style="fill:#D56C30;" d="M57.781,115.061c-0.506-7.219,1.869-15.792,12.531-22.605
									c12.929-8.261,21.984-4.518,26.734-0.89c-5.676-0.528-13.807-3.057-25.578,4.514
									C62.503,101.845,59.192,110.044,57.781,115.061z"/>
							</g>
							<path style="fill:#F9B287;" d="M108.686,124.808c-3.632,1.78-5.539,5.566-4.255,8.451c1.284,2.884,5.277,3.782,8.91,2.003
								c3.633-1.78,5.539-5.567,4.255-8.451C116.311,123.925,112.319,123.028,108.686,124.808z"/>
						</g>
					</g>
				</g>
				<g>
					<g>
						<path style="fill:#929BA1;" d="M116.138,209.116c0,0,11.476,12.746,7.635,22.649c-2.855,7.36-9.965,10.555-10.721,16.382
							c-0.522,4.016,1.241,8.395-1.602,9.627c-2.79,1.208-5.56-4.609-4.111-11.67c1.511-7.359,8.471-10.65,10.939-15.045
							c3.305-5.882-5.089-13.956-5.089-13.956L116.138,209.116L116.138,209.116z"/>
						<path style="fill:#F0F1F2;" d="M108.587,242.573c1.708,0.09,4.111,0.426,6.122,1.494c-0.852,1.263-1.464,2.585-1.657,4.08
							c-0.522,4.016,1.241,8.395-1.602,9.627c-2.79,1.208-5.561-4.609-4.111-11.67C107.604,244.81,108.038,243.644,108.587,242.573z
							"/>
					</g>
					<g>
						<path style="fill:#929BA1;" d="M85.331,181.973c13.368,2.265,24.011,15.945,17.897,29.447
							c-7.169,15.828-24.329-3.93-27.868-5.302c-5.445-2.11-24.342-4.128-21.246-14.378
							C57.631,180.096,73.267,179.929,85.331,181.973z"/>
						<path style="fill:#717983;" d="M53.817,194.637c-0.105-0.886-0.019-1.848,0.298-2.897c2.535-8.392,11.366-10.824,20.618-10.76
							C72.556,184.064,65.953,191.953,53.817,194.637z"/>
						<path style="fill:#717983;" d="M71.511,204.989l1.294-4.695l9.081-9.771c0,0,9.949,12.215,0.824,17.269
							c-1.116,0.618-6.235-1.242-7.349-1.674C74.419,205.754,73.074,205.391,71.511,204.989z"/>
					</g>
					<g>
						<g>
							<g>
								<path style="fill:#929BA1;" d="M51.697,161.09c0,0-14.48-7.936-17.106-5.455c-2.853,2.695,1.083,17.873,1.083,17.873
									L51.697,161.09z"/>
								<path style="fill:#E9B1D1;" d="M47.453,162.614c0,0-8.717-4.791-10.305-3.279c-1.726,1.644,0.616,10.854,0.616,10.854
									L47.453,162.614z"/>
							</g>
							<g>
								<path style="fill:#929BA1;" d="M56.029,160.213c0,0,12.509-10.435,16.015-7.536c2.963,2.449,2.274,16.707,2.274,16.707
									L56.029,160.213z"/>
								<path style="fill:#E9B1D1;" d="M60.254,161.108c0,0,7.663-7.091,9.641-5.325c1.671,1.492,0.85,10.702,0.85,10.702
									L60.254,161.108L60.254,161.108z"/>
							</g>
						</g>
						<path style="fill:#929BA1;" d="M53.989,159.241c11.527-0.946,21.45,5.171,22.146,13.65
							c0.696,8.479-8.098,16.131-19.625,17.077c-11.527,0.946-21.45-5.17-22.146-13.65
							C33.667,167.838,42.462,160.187,53.989,159.241z"/>
						<g>
							<g>
								<path style="fill:#F0F1F2;" d="M49.411,189.567c-1.845-1.044-3.026-2.542-3.106-4.253c-0.16-3.441,4.192-6.444,9.712-6.703
									c5.522-0.258,10.134,2.327,10.295,5.768c0.058,1.238-0.467,2.419-1.422,3.436c-2.52,1.148-5.354,1.904-8.38,2.151
									C54.048,190.169,51.657,190.019,49.411,189.567L49.411,189.567z"/>
								<path style="fill:#FF9EB1;" d="M55.744,178.317c1.729-0.068,3.167,0.715,3.207,1.746c0.04,1.03-3.062,1.989-3.062,1.989
									s-3.166-0.715-3.206-1.745C52.644,179.276,54.014,178.384,55.744,178.317z"/>
							</g>
							<g>
								<path style="fill:none;stroke:#444757;stroke-linecap:round;stroke-linejoin:round;stroke-miterlimit:1.5;" d="
									M42.585,178.979c0,0,2.916-5.448,7.616-0.3"/>
								<path style="fill:none;stroke:#444757;stroke-linecap:round;stroke-linejoin:round;stroke-miterlimit:1.5;" d="
									M61.03,178.037c0,0,2.266-5.749,7.53-1.18"/>
							</g>
						</g>
					</g>
				</g>
				<g>
					<g>
						<g>
							<g>
								<path style="fill:#F9B287;" d="M107.952,185.045l22.265,10.196c0,0-15.33,34.355-25.845,34.684
									c-10.515,0.329-38.597-18.664-38.597-18.664l4.869-11.115l28.294,10.415L107.952,185.045z"/>
								<path style="fill:#F89874;" d="M119.102,215.912l-17.522-12.829l5.536-15.671l21.898,10.416
									C127.185,201.663,123.455,209.14,119.102,215.912L119.102,215.912z"/>
							</g>
							<path style="fill:#BC69B6;" d="M102.02,200.128c0,0,8.993-28.583,18.464-39.616c5.325-6.204,17.829-2.342,16.541,17.18
								c-1.093,16.575-6.615,34.546-6.615,34.546L102.02,200.128z"/>
						</g>
						<path style="fill:#F9B287;" d="M72.442,202.253c-0.053-1.064-0.604-5.618-2.561-6.756c-2.769-1.61-6.532-2.169-10.925-3.194
							c-1.578-0.367-5.273-1.897-5.906-1.553c-2.172,1.179,1.181,3.897,2.408,4.297c-0.015,0.073-2.299-0.198-2.411-0.209
							c-1.692-0.169-4.529-0.869-5.973,0.213c-2.288,1.717,1.534,3.996,3.341,4.499c-0.96,0.508-1.561,0.978-1.671,2.231
							c-0.139,1.583,0.774,2.717,2.491,3.162c-0.477,0.823-0.492,1.59-0.371,2.262c0.215,1.206,1.136,1.633,2.551,2.147
							c-0.281,0.476-0.355,0.993-0.315,1.4c0.068,0.682,0.377,1.34,1.257,1.905c1.617,1.04,4.283,0.483,6.142,0.32
							c2.28-0.201,4.287-0.725,6.456-1.317c0.552-0.15,1.987-0.259,2.349-0.704c0.391-0.481,0.386-1.358,0.531-1.912
							c0.327-1.264,0.692-2.52,1.078-3.772"/>
					</g>
					<g>
						<path style="fill:#929BA1;" d="M82.584,189.932c0,0,5.172,11.876,1.065,15.246c-4.107,3.371-13.816-0.436-14.179,1.512
							c-0.364,1.947-0.372,4.124-3.099,3.682c-2.726-0.442-3.52-6.619-1.733-8.46c1.786-1.841,7.972-3.248,7.972-3.248l-2.446-4.281
							"/>
						<path style="fill:#F0F1F2;" d="M65.339,201.343c0.373,0.54,0.693,1.119,1.015,1.689c0.615,1.089,1.088,2.308,2.028,3.17
							c0.307,0.282,0.666,0.528,1.043,0.734c-0.325,1.879-0.442,3.859-3.055,3.436c-2.726-0.442-3.52-6.619-1.733-8.46
							C64.826,201.717,65.064,201.527,65.339,201.343L65.339,201.343z"/>
					</g>
				</g>
			</g>
			<g>
				<g>
					<path style="fill:#F9B287;" d="M286.346,248.933c0,0,15.958,7.461,18.946,13.253c2.988,5.794-24.211,9.026-24.211,9.026
						s-7.196-7.257-5.976-17.442L286.346,248.933z"/>
					<g>
						<g>
							<g>
								<path style="fill:#732E1F;" d="M359.325,379.241c2.83,0.374,6.679,6.406,4.58,13.598
									c-3.17,10.858-11.988,14.409-17.781,14.852c-7.632,0.584-13.743-4.026-12.033-8.716c0.957,3.035,6.048,4.34,13.438,0.804
									C357.671,394.923,359.615,379.835,359.325,379.241L359.325,379.241z"/>
								<g>
									<path style="fill:#A0472B;" d="M283.838,361.117c8.339-25.63,1.682-33.334-16.24-27.572c0,0-7.997,11.497-3.195,34.811
										c3.27,15.877,2.493,34.083-0.183,46.586c-0.04,0.189-2.057,0.467-4.19,1.46c-7.906,3.683-5.862,9.929-3.74,10.154
										c0.759,0.08,16.24,0.554,16.943-0.411c1.636-2.241,9.37-38.988,8.332-46.229
										C279.793,367.55,283.838,361.117,283.838,361.117L283.838,361.117z"/>
								</g>
								<g>
									<g>
										<path style="fill:#A0472B;" d="M293.061,369.773c20.556-3.924,35.956,2.35,36.524,18.749
											c1.418,40.856-10.755,28.732-23.917,29.731c-14.896,1.13-23.758-8.964-26.441-19.017
											C274.994,383.382,282.793,371.732,293.061,369.773L293.061,369.773z"/>
									</g>
									<g>
										<g>
											<path style="fill:#A0472B;" d="M306.485,411.901c10.127,0.072,20.35,2.074,23.213,10.738
												c1.23,3.724-7.624,3.819-23.213,3.819c-15.588,0-34.101,0.603-33.529-3.387
												C274.278,413.857,290.897,411.79,306.485,411.901z"/>
										</g>
										<g>
											
												<path style="fill:none;stroke:#3F1E2B;stroke-width:1.27;stroke-linecap:round;stroke-linejoin:round;stroke-miterlimit:1.5;" d="
												M277.228,425.484c0,0,0.11-3.782,4.549-6.291"/>
											
												<path style="fill:none;stroke:#3F1E2B;stroke-width:1.27;stroke-linecap:round;stroke-linejoin:round;stroke-miterlimit:1.5;" d="
												M273.982,424.59c0,0,1.02-5.02,4.07-6.333"/>
										</g>
									</g>
								</g>
							</g>
							<g>
								<g>
									<path style="fill:#AB442E;" d="M314.84,280.385c0,0,6.179-13.689-1.126-31.104c-6.23-14.855-16.656,17.266-16.656,17.266
										L314.84,280.385z"/>
									<path style="fill:#FB6687;" d="M303.132,262.121c0,0,5.009-12.978,4.745-13.868c-0.783-2.634-7.33,11.585-7.33,11.585
										L303.132,262.121z"/>
								</g>
								<g>
									<path style="fill:#CC6240;" d="M311.928,262.578c12.207,6.802,17.111,21.309,10.944,32.376
										c-6.165,11.068-21.083,14.531-33.29,7.73c-12.208-6.801-17.111-21.308-10.945-32.376
										C284.804,259.241,299.722,255.778,311.928,262.578L311.928,262.578z"/>
									<path style="fill:#CC6240;" d="M286.37,266.69c9.072,5.054,13.167,15.028,9.138,22.258s6.199,30.919-21.952,1.648
										c-9.324-9.694-10.779-22.042-5.194-27.762C270.985,260.15,277.299,261.636,286.37,266.69L286.37,266.69z"/>
								</g>
								<g>
									<path style="fill:#CC6240;" d="M321.845,286.051c0,0,10.931-13.139,8.593-26.956
										c-2.279-13.471-19.026,10.405-19.026,10.405L321.845,286.051z"/>
									<path style="fill:#FC90B0;" d="M321.286,273.3c0,0,6.89-10.344,5.424-15.505c-1.026-3.608-9.935,8.702-9.935,8.702
										L321.286,273.3L321.286,273.3z"/>
								</g>
								<path style="fill:#522738;" d="M272.654,259.548c2.067,0.766,4.918,2.596,4.083,3.324c-0.331,0.289-0.832,0.609-1.439,0.939
									c-2.626,1.426-7.219,3-8.375,2.632c-1.469-0.465-0.846-3.327,0.255-5.389C268.316,258.923,270.858,258.882,272.654,259.548
									L272.654,259.548z"/>
								<path style="fill:#522738;" d="M292.384,267.754c0.848,0.615,0.639,2.351-0.465,3.874c-1.106,1.523-2.691,2.26-3.539,1.645
									c-0.848-0.615-0.639-2.351,0.465-3.874C289.949,267.876,291.536,267.139,292.384,267.754z"/>
								<g>
									<path style="fill:#522738;" d="M270.194,286.976c0,0,6.133,1.986,14.149-2.925c0.273-0.168,0.36-0.524,0.192-0.797
										s-0.524-0.359-0.797-0.192c-7.484,4.585-13.193,2.81-13.193,2.81c-0.305-0.097-0.632,0.072-0.728,0.376
										C269.72,286.553,269.889,286.88,270.194,286.976z"/>
									<path style="fill:#522738;" d="M282.506,280.357c0,0-0.203,3.65,3.648,4.745c0.307,0.088,0.628-0.091,0.716-0.4
										c0.088-0.307-0.091-0.628-0.4-0.716c-2.923-0.83-2.806-3.571-2.806-3.571c0.016-0.32-0.231-0.592-0.551-0.608
										C282.795,279.79,282.522,280.037,282.506,280.357z"/>
								</g>
							</g>
							<g>
								<g>
									<path style="fill:#CC6240;" d="M315.487,326.957c0,2.431,0.919,4.773,2.573,6.556
										c5.663,10.304,12.184,35.883,18.099,41.317c5.15,4.738,8.752,11.264,8.319,18.431
										c-1.889,31.307-12.99,26.338-28.991,26.338c-16.001,0-22.31-11.877-25.346-24.374c-2.024-8.332-7.867-17.162-14.714-21.101
										c-8.812-5.092-14.635-13.892-14.635-23.883c0-9.352,5.102-17.658,12.979-22.865c2.626-1.731,4.476-4.417,5.158-7.488
										c1.761-7.587,4.714-20.89,4.714-20.89l31.845-0.195V326.957z"/>
									<path style="fill:#EB9B62;" d="M260.792,350.242c0-6.213,17.794-7.767,28.327,28.516
										c7.529,25.933,26.264,28.405,22.623,40.608c-13.268-1.718-18.813-12.668-21.6-24.141
										c-2.024-8.332-7.867-17.162-14.714-21.101C266.615,369.032,260.792,360.232,260.792,350.242L260.792,350.242z"/>
								</g>
								<path style="fill:#522738;" d="M316.756,310.566l-40.782,2.87l-0.139,11.313l40.939-3.676L316.756,310.566z"/>
							</g>
							<g>
								<g>
									<g>
										<path style="fill:#CC6240;" d="M304.216,370.885c20.556-3.923,35.956,2.351,36.524,18.749
											c1.418,40.857-10.755,28.733-23.918,29.732c-14.895,1.129-23.757-8.964-26.441-19.017
											C286.15,384.496,293.948,372.845,304.216,370.885L304.216,370.885z"/>
										<path style="fill:#DD7B4E;" d="M290.793,401.696l-0.412-1.347c-4.232-15.853,3.567-27.504,13.835-29.464
											c13.081-2.497,24.075-0.864,30.47,4.901c-7.143-2.596-16.413-2.898-26.841-0.909
											C297.635,376.825,289.556,387.134,290.793,401.696L290.793,401.696z"/>
									</g>
									<g>
										<path style="fill:#CC6240;" d="M317.641,413.014c10.126,0.072,20.35,2.074,23.212,10.738
											c1.231,3.723-7.623,3.819-23.212,3.819c-15.589,0-34.102,0.603-33.529-3.387
											C285.432,414.97,302.053,412.903,317.641,413.014z"/>
										<g>
											
												<path style="fill:none;stroke:#522738;stroke-width:1.27;stroke-linecap:round;stroke-linejoin:round;stroke-miterlimit:1.5;" d="
												M288.382,426.597c0,0,0.111-3.782,4.55-6.291"/>
											
												<path style="fill:none;stroke:#522738;stroke-width:1.27;stroke-linecap:round;stroke-linejoin:round;stroke-miterlimit:1.5;" d="
												M285.136,425.703c0,0,1.02-5.019,4.071-6.333"/>
										</g>
									</g>
								</g>
								<g>
									<path style="fill:#CC6240;" d="M291.586,361.117c8.339-25.63,1.682-33.334-16.24-27.572c0,0-7.997,11.497-3.195,34.811
										c3.27,15.877,2.493,34.083-0.183,46.586c-0.04,0.189-2.058,0.467-4.189,1.46c-7.906,3.683-5.862,9.929-3.74,10.154
										c0.759,0.08,16.24,0.554,16.943-0.411c1.636-2.241,9.37-38.988,8.332-46.229
										C287.541,367.55,291.586,361.117,291.586,361.117L291.586,361.117z"/>
									<g>
										<path style="fill:#522738;" d="M268.021,426.415c0,0-0.139-1.096,0.122-2.423c0.254-1.291,0.886-2.816,2.453-3.719
											c0.277-0.16,0.373-0.514,0.213-0.792c-0.159-0.277-0.514-0.373-0.792-0.213c-1.905,1.097-2.703,2.931-3.013,4.499
											c-0.301,1.532-0.134,2.796-0.134,2.796c0.041,0.318,0.332,0.542,0.649,0.501
											C267.836,427.024,268.062,426.733,268.021,426.415L268.021,426.415z"/>
										<path style="fill:#522738;" d="M264.647,426.415c0,0-0.139-1.096,0.123-2.423c0.254-1.291,0.886-2.816,2.453-3.719
											c0.278-0.16,0.373-0.514,0.213-0.792c-0.16-0.277-0.514-0.373-0.792-0.213c-1.905,1.097-2.704,2.931-3.013,4.499
											c-0.302,1.532-0.135,2.796-0.135,2.796c0.041,0.318,0.332,0.542,0.649,0.501
											C264.464,427.024,264.688,426.733,264.647,426.415L264.647,426.415z"/>
									</g>
								</g>
							</g>
						</g>
						<path style="fill:#F9B287;" d="M292.305,252.353c0,0,12.799,11.039,9.091,12.182c-3.708,1.142-10.039-2.856-10.039-2.856
							s-8.024,1.74-12.409-2.436"/>
					</g>
				</g>
				<g>
					<g>
						<g>
							<path style="fill:#F9B287;" d="M243.314,189.189l21.731-8.692c0,0,5.233,29.827,24.243,70.211l-13.457,5.266
								C275.832,255.974,251.371,225.698,243.314,189.189L243.314,189.189z"/>
							<path style="fill:#F89874;" d="M251.354,213.99c-3.246-7.691-6.112-16.068-8.039-24.801l21.731-8.692
								c0,0,1.531,8.723,5.944,23.122L251.354,213.99L251.354,213.99z"/>
						</g>
						<path style="fill:#522738;" d="M234.848,160.37l3.895-15.863c0,0,15.264,3.22,22.061,19.772
							c6.539,15.923,13.593,31.318,13.593,31.318l-27.144,10.39L234.848,160.37L234.848,160.37z"/>
					</g>
					<g>
						<g>
							<g>
								<path style="fill:#522738;" d="M244.579,426.914l-41.68-0.664l3.983-14.392c0,0,18.513-1.143,24.965,0.925
									C246.829,417.584,244.579,426.914,244.579,426.914L244.579,426.914z"/>
								<path style="fill:#AB7B80;" d="M243.8,421.583c1.349,2.964,0.778,5.331,0.778,5.331l-41.68-0.664l1.292-4.667H243.8z"/>
							</g>
							<g>
								<path style="fill:#522738;" d="M151.163,426.914l39.547-0.664l-3.779-14.392c0,0-17.566-1.143-23.688,0.925
									C149.027,417.584,151.163,426.914,151.163,426.914L151.163,426.914z"/>
								<path style="fill:#AB7B80;" d="M189.388,421.211h-37.319c-1.494,3.135-0.906,5.703-0.906,5.703l39.547-0.664
									L189.388,421.211L189.388,421.211z"/>
							</g>
						</g>
						<g>
							<g>
								<path style="fill:#273036;" d="M249.943,230.131l-18.257,182.473L205.26,415.3l8.531-193.544L249.943,230.131
									L249.943,230.131z"/>
								<path style="fill:#161B1F;" d="M206.071,396.913l5.838-132.426l20.562-5.593L206.071,396.913L206.071,396.913z"/>
							</g>
							<path style="fill:#273036;" d="M226.265,221.756l-36.833,193.358l-24.896-3.571l17.285-193.224L226.265,221.756
								L226.265,221.756z"/>
							<path style="fill:#161B1F;" d="M221.01,221.349l5.255,0.406l-0.541,2.765l24.218,5.611l-0.98,9.798
								c-25.887,10.206-57.32,8.243-69.473,6.923l1.859-22.748L221.01,221.349L221.01,221.349z"/>
							<path style="fill:#273036;" d="M221.01,221.349l-39.661,2.754l0.473-5.786L221.01,221.349z"/>
						</g>
					</g>
					<g>
						<path style="fill:#522738;" d="M247.831,149.959c-11.733-14.143-57.349-13.1-68.424,1.563
							c-11.074,14.663-0.512,86.418-0.512,86.418c22.965,4.657,48.294,5.293,70.91-1.563
							C249.805,236.377,259.565,164.102,247.831,149.959L247.831,149.959z"/>
						<path style="fill:#462130;" d="M187.311,160.52c9.307,51.672,33.643,65.254,64.217,60.57
							c-0.888,9.104-1.723,15.287-1.723,15.287c-22.616,6.856-47.945,6.22-70.91,1.563
							C178.895,237.94,187.101,186.197,187.311,160.52L187.311,160.52z"/>
					</g>
					<g>
						<path style="fill:#78394B;" d="M195.16,142.49c2.206,9.383,12.476,20.692,26.72,18.029
							c9.135-1.707,13.138-12.126,9.854-18.852C220.486,139.064,206.283,139.384,195.16,142.49L195.16,142.49z"/>
						<g>
							<path style="fill:#F9B287;" d="M205.235,128.549c0,0,1.362,10.397-7.574,13.856c0,0,6.451,13.643,18.804,15.157
								c12.352,1.515,15.254-12.868,12.503-13.492c-2.942-0.667-4.986-2.135-4.064-15.766L205.235,128.549z"/>
							<path style="fill:#F89874;" d="M204.444,135.356c4.294,3.55,11.583,7.704,21.821,7.177c-1.408-2.257-2.35-6.454-1.362-14.228
								l-19.669,0.244C205.235,128.549,205.668,131.854,204.444,135.356L204.444,135.356z"/>
						</g>
						<g>
							<g>
								<path style="fill:#F89874;" d="M243.926,113.54c3.975-0.394,7.439,1.871,7.731,5.052c0.291,3.183-2.701,6.086-6.676,6.48
									c-3.975,0.393-7.44-1.872-7.731-5.053C236.959,116.836,239.95,113.933,243.926,113.54L243.926,113.54z"/>
								<path style="fill:#8A4F35;" d="M243.929,92.319c4.546,1.28,6.475,9.081,4.307,17.408
									c-2.169,8.328-7.621,14.051-12.167,12.77c-4.546-1.28-6.476-9.081-4.307-17.409
									C233.932,96.76,239.383,91.038,243.929,92.319z"/>
								<g>
									<path style="fill:#F9B287;" d="M224.907,82.197c12.964,1.617,22.049,15.414,20.275,30.791
										c-1.773,15.376-11.353,27.814-24.317,26.197s-24.434-16.681-22.66-32.058C199.978,91.75,211.943,80.579,224.907,82.197z"/>
									<path style="fill:#F89874;" d="M242.482,95.838c1.885,3.984,2.936,8.573,2.922,13.418
										c-0.496-3.464-1.265-6.137-1.265-6.137c-13.019,6.603-28.984-3.584-28.984-3.584c-8.342,13.897-15.55,13.252-15.55,13.252
										l9.194-22.193L242.482,95.838L242.482,95.838z"/>
								</g>
								<g>
									<path style="fill:#8A4F35;" d="M206.707,81.401c2.033-7.629,13.655-11.083,26.034-7.712
										c12.443,3.39,20.969,12.403,19.026,20.115c-1.943,7.712-13.622,11.221-26.065,7.831c-4.458-1.214-8.413-3.15-11.564-5.489
										c-0.194,0.787-0.45,1.601-0.772,2.439c-4.384,11.422-10.539,14.249-12.322,13.521c-5.004-2.045-8.35-8.737-6.836-17.22
										c1.514-8.482,7.036-14.541,12.322-13.521C206.589,81.375,206.648,81.387,206.707,81.401L206.707,81.401z"/>
									<path style="fill:#AC6542;" d="M208.718,77.663c4.279-4.923,13.897-6.732,24.022-3.974
										c12.443,3.39,20.969,12.403,19.026,20.115c-0.111,0.44-0.253,0.866-0.425,1.277
										C237.24,70.585,217.394,74.429,208.718,77.663L208.718,77.663z"/>
								</g>
								<path style="fill:#F9B287;" d="M199.412,106.669c3.293,2.349,4.555,6.396,2.816,9.033c-1.74,2.635-5.825,2.868-9.117,0.518
									c-3.294-2.349-4.555-6.396-2.816-9.033C192.033,104.552,196.119,104.319,199.412,106.669L199.412,106.669z"/>
							</g>
							<g>
								<g>
									<path style="fill:#162448;" d="M217.888,115.828c0.745,0.182,1.122,1.333,0.844,2.57c-0.279,1.237-1.109,2.094-1.854,1.912
										c-0.745-0.181-1.122-1.332-0.844-2.569C216.312,116.504,217.143,115.647,217.888,115.828z"/>
									<path style="fill:#162448;" d="M238.058,118.525c0.745,0.181,1.122,1.333,0.844,2.57c-0.279,1.237-1.109,2.093-1.854,1.912
										c-0.745-0.182-1.122-1.333-0.844-2.57C236.483,119.2,237.314,118.343,238.058,118.525z"/>
									<path style="fill:#8A4F35;" d="M212.818,111.809c0,0,7.611-4.353,10.823,0.659
										C223.641,112.468,222.289,101.563,212.818,111.809z"/>
									<path style="fill:#8A4F35;" d="M243.835,115.373c0,0-2.32-5.536-9.207-2.246
										C234.628,113.127,243.089,103.773,243.835,115.373z"/>
								</g>
								<g>
									
										<path style="fill:none;stroke:#C04A4A;stroke-width:0.92;stroke-linecap:round;stroke-linejoin:round;stroke-miterlimit:1.5;" d="
										M230.474,120.765c0,0,0.023,3.668-1.396,5.607"/>
									
										<path style="fill:none;stroke:#C04A4A;stroke-width:0.92;stroke-linecap:round;stroke-linejoin:round;stroke-miterlimit:1.5;" d="
										M226.846,130.41c0,0-6.568,1.625-8.617-5.599"/>
								</g>
							</g>
						</g>
					</g>
					<g>
						<g>
							<g>
								<path style="fill:#F9B287;" d="M191.73,194.818l-23.683-4.902c0,0-1.988,40.797,15.668,78.447l14.286-6.154
									C198.001,262.209,188.201,237.386,191.73,194.818L191.73,194.818z"/>
								<path style="fill:#F89874;" d="M168.402,205.597l22.737-1.197c0.124-3.083,0.317-6.28,0.592-9.582l-23.683-4.902
									C168.048,189.916,167.752,195.982,168.402,205.597z"/>
							</g>
							<path style="fill:#F9B287;" d="M194.9,259.244c0,0,13.662,8.082,16.211,14.142c1.465,3.485,2.218,17.543-0.217,18.133
								c-2.433,0.589-3.909-12.244-3.909-12.244s-0.474,17.086-2.723,17.31c-3.52,0.351-3.118-15.146-3.118-15.146
								s-1.925,17.014-4.857,16.833c-2.792-0.171-1.735-14.965-1.735-14.965s-3.611,12.396-6.053,11.848
								c-2.688-0.603,0.314-12.58,0.314-12.58s-8.028-6.891-5.838-18.682L194.9,259.244L194.9,259.244z"/>
						</g>
						<path style="fill:#522738;" d="M202.078,170.186l-9.884-26.395c0,0-16.244,1.673-21.681,17.877
							c-6.012,17.918-8.816,36.542-8.816,36.542l33.024,5.185L202.078,170.186L202.078,170.186z"/>
					</g>
				</g>
			</g>
		</g>
	</g>
</g>
</svg>
